# Rhino

mtllib obj2.mtl
usemtl diffuse_Black
v 31.841121673583984 13.52025318145752 0
v 37.232715606689453 -0.90780395269393921 0
v 33.339931488037109 -2.3275530338287354 0
v 29.492317199707031 -3.5872745513916016 0
v 25.689872741699219 -4.6869688034057617 0
v 21.932601928710938 -5.6266350746154785 0
v 18.220502853393555 -6.4062743186950684 0
v 14.553576469421387 -7.025886058807373 0
v 10.931819915771484 -7.4854702949523926 0
v 7.3552360534667969 -7.785027027130127 0
v 22.147270202636719 2.9190845489501953 0
v 7.039435863494873 7.8547511100769043 0
v 9.9250288009643555 8.0709018707275391 0
v 12.871940612792969 8.4276342391967773 0
v 15.880171775817871 8.9249496459960937 0
v 18.949722290039063 9.5628461837768555 0
v 22.080593109130859 10.341324806213379 0
v 25.272783279418945 11.260385513305664 0
v 28.52629280090332 12.320028305053711 0
v 18.321746826171875 2.8418393135070801 0
v 18.214633941650391 8.1464452743530273 0
vt 0.83880698680877686 0.69880563020706177
vt 0.89165258407592773 0.30119436979293823
vt 0.78457790613174438 0.28782308101654053
vt 0.67958146333694458 0.27825069427490234
vt 0.5766633152961731 0.27247720956802368
vt 0.47582349181175232 0.27050256729125977
vt 0.37706199288368225 0.27232682704925537
vt 0.28037884831428528 0.27794992923736572
vt 0.18577396869659424 0.28737196326255798
vt 0.093247435986995697 0.30059283971786499
vt 0.53102904558181763 0.48616385459899902
vt 0.17629295587539673 0.69940716028213501
vt 0.25079482793807983 0.68809247016906738
vt 0.32767167687416077 0.6799890398979187
vt 0.40692347288131714 0.67509698867797852
vt 0.48855024576187134 0.6734161376953125
vt 0.57255196571350098 0.67494654655456543
vt 0.65892869234085083 0.67968833446502686
vt 0.74768036603927612 0.68764132261276245
vt 0.43347817659378052 0.50647693872451782
vt 0.46164503693580627 0.64174443483352661
vn 0 0 -1
vn 0 0 -1
vn 0 0 -1
vn 0 0 -1
vn 0 0 -1
vn 0 0 -1
vn 0 0 -1
vn 0 0 -1
vn 0 0 -1
vn 0 0 -1
vn 0 0 -1
vn 0 0 -1
vn 0 0 -1
vn 0 0 -1
vn 0 0 -1
vn 0 0 -1
vn 0 0 -1
vn 0 0 -1
vn 0 0 -1
vn 0 0 -1
vn 0 0 -1
f 5/5/5 6/6/6 7/7/7 8/8/8 9/9/9 10/10/10 12/12/12 13/13/13 14/14/14 15/15/15 16/16/16 17/17/17 18/18/18 19/19/19 1/1/1 2/2/2 3/3/3 4/4/4
