# Rhino

mtllib obj1.mtl
g obj1_outter
usemtl diffuse_Black
v -7.9641509056091309 -7.9574241638183594 0
v -5.7592329978942871 7.9574241638183594 0
v -4.3128218650817871 7.7837448120117188 0
v -2.8500304222106934 7.6541213989257813 0
v -1.3708664178848267 7.5685501098632813 0
v 0.12467043846845627 7.5270309448242187 0
v 1.6365798711776733 7.5295677185058594 0
v 3.1648621559143066 7.5761566162109375 0
v 4.7095246315002441 7.6668014526367187 0
v 6.2705597877502441 7.8014984130859375 0
v 7.4528260231018066 -7.8014984130859375 0
v 5.4861664772033691 -7.9980850219726563 0
v 3.5307984352111816 -8.144073486328125 0
v 1.5867294073104858 -8.2394638061523437 0
v -0.34604793787002563 -8.2842540740966797 0
v -2.2675185203552246 -8.2784461975097656 0
v -4.1776976585388184 -8.2220382690429687 0
v -6.0765700340270996 -8.1150302886962891 0
v -7.5105834007263184 -7.5983619689941406 0
v -5.7295393943786621 -7.7375774383544922 0
v -3.9382796287536621 -7.8316001892089844 0
v -2.1367812156677246 -7.8804206848144531 0
v -0.32503658533096313 -7.8840312957763672 0
v 1.4969772100448608 -7.8424224853515625 0
v 3.3292679786682129 -7.755584716796875 0
v 5.1718583106994629 -7.6235122680664062 0
v 7.0247559547424316 -7.4461956024169922 0
v 5.9025483131408691 7.3641777038574219 0
v 4.4383606910705566 7.2468757629394531 0
v 2.9881806373596191 7.1682205200195313 0
v 1.5520385503768921 7.1282386779785156 0
v 0.12994234263896942 7.1269454956054687 0
v -1.2780777215957642 7.1643524169921875 0
v -2.6720137596130371 7.2404823303222656 0
v -4.0518431663513184 7.3553504943847656 0
v -5.4175429344177246 7.50897216796875 0
vt 0.0098039219155907631 0.97046780586242676
vt 0.15001857280731201 0.0098039219155907631
vt 0.24199849367141724 0.020287662744522095
vt 0.33501967787742615 0.028112197294831276
vt 0.42908212542533875 0.033277526497840881
vt 0.5241858959197998 0.03578365221619606
vt 0.62033087015151978 0.035630572587251663
vt 0.7175171971321106 0.03281828761100769
vt 0.81574475765228271 0.027346799150109291
vt 0.91501355171203613 0.019216105341911316
vt 0.99019604921340942 0.96105557680130005
vt 0.86513251066207886 0.97292214632034302
vt 0.7407873272895813 0.98173445463180542
vt 0.6171606183052063 0.98749238252639771
vt 0.49425238370895386 0.99019604921340942
vt 0.37206259369850159 0.98984545469284058
vt 0.25059124827384949 0.98644053936004639
vt 0.12983836233615875 0.97998130321502686
vt 0.038647029548883438 0.94879370927810669
vt 0.151906818151474 0.95719718933105469
vt 0.265816330909729 0.96287262439727783
vt 0.38037654757499695 0.9658195972442627
vt 0.49558854103088379 0.96603751182556152
vt 0.61145329475402832 0.96352589130401611
vt 0.72797185182571411 0.95828419923782349
vt 0.84514522552490234 0.95031189918518066
vt 0.96297448873519897 0.93960857391357422
vt 0.89161115884780884 0.045613821595907211
vt 0.79850077629089355 0.052694700658321381
vt 0.70628154277801514 0.057442367076873779
vt 0.61495465040206909 0.059855800122022629
vt 0.52452129125595093 0.059933971613645554
vt 0.43498271703720093 0.057675864547491074
vt 0.34634003043174744 0.053080454468727112
vt 0.25859448313713074 0.046146716922521591
vt 0.17174723744392395 0.036873634904623032
vn 0 0 1
vn 0 0 1
vn 0 0 1
vn 0 0 1
vn 0 0 1
vn 0 0 1
vn 0 0 1
vn 0 0 1
vn 0 0 1
vn 0 0 1
vn 0 0 1
vn 0 0 1
vn 0 0 1
vn 0 0 1
vn 0 0 1
vn 0 0 1
vn 0 0 1
vn 0 0 1
vn 0 0 1
vn 0 0 1
vn 0 0 1
vn 0 0 1
vn 0 0 1
vn 0 0 1
vn 0 0 1
vn 0 0 1
vn 0 0 1
vn 0 0 1
vn 0 0 1
vn 0 0 1
vn 0 0 1
vn 0 0 1
vn 0 0 1
vn 0 0 1
vn 0 0 1
vn 0 0 1
f 36/36/36 3/3/3 2/2/2
f 2/2/2 19/19/19 36/36/36
f 35/35/35 3/3/3 36/36/36
f 1/1/1 19/19/19 2/2/2
f 34/34/34 5/5/5 4/4/4
f 35/35/35 34/34/34 4/4/4
f 33/33/33 5/5/5 34/34/34
f 33/33/33 6/6/6 5/5/5
f 3/3/3 35/35/35 4/4/4
f 1/1/1 18/18/18 19/19/19
f 20/20/20 19/19/19 18/18/18
f 20/20/20 18/18/18 17/17/17
f 17/17/17 21/21/21 20/20/20
f 16/16/16 22/22/22 21/21/21
f 16/16/16 15/15/15 22/22/22
f 23/23/23 22/22/22 15/15/15
f 24/24/24 23/23/23 15/15/15
f 17/17/17 16/16/16 21/21/21
f 31/31/31 7/7/7 6/6/6
f 7/7/7 31/31/31 30/30/30
f 30/30/30 8/8/8 7/7/7
f 32/32/32 31/31/31 6/6/6
f 28/28/28 10/10/10 9/9/9
f 8/8/8 29/29/29 9/9/9
f 28/28/28 9/9/9 29/29/29
f 30/30/30 29/29/29 8/8/8
f 28/28/28 11/11/11 10/10/10
f 15/15/15 14/14/14 24/24/24
f 25/25/25 24/24/24 14/14/14
f 14/14/14 13/13/13 25/25/25
f 12/12/12 27/27/27 26/26/26
f 13/13/13 12/12/12 26/26/26
f 11/11/11 27/27/27 12/12/12
f 25/25/25 13/13/13 26/26/26
f 27/27/27 11/11/11 28/28/28
f 33/33/33 32/32/32 6/6/6
g obj1_inner
usemtl diffuse_Black
v -7.5105834007263184 -7.5983619689941406 0
v -5.4175429344177246 7.50897216796875 0
v -4.0518431663513184 7.3553504943847656 0
v -2.6720137596130371 7.2404823303222656 0
v -1.2780777215957642 7.1643524169921875 0
v 0.12994234263896942 7.1269454956054687 0
v 1.5520385503768921 7.1282386779785156 0
v 2.9881806373596191 7.1682205200195313 0
v 4.4383606910705566 7.2468757629394531 0
v 5.9025483131408691 7.3641777038574219 0
v 7.0247559547424316 -7.4461956024169922 0
v 5.1718583106994629 -7.6235122680664062 0
v 3.3292679786682129 -7.755584716796875 0
v 1.4969772100448608 -7.8424224853515625 0
v -0.32503658533096313 -7.8840312957763672 0
v -2.1367812156677246 -7.8804206848144531 0
v -3.9382796287536621 -7.8316001892089844 0
v -5.7295393943786621 -7.7375774383544922 0
vt 0.0098039219155907631 0.97200155258178711
vt 0.15097726881504059 0.0098039219155907631
vt 0.24309219419956207 0.01958826370537281
vt 0.33615991473197937 0.026904281228780746
vt 0.4301791787147522 0.031753052026033401
vt 0.52514874935150146 0.034135658293962479
vt 0.62106728553771973 0.034053176641464233
vt 0.7179335355758667 0.031506683677434921
vt 0.81574630737304688 0.026497261598706245
vt 0.9145042896270752 0.019025987014174461
vt 0.99019604921340942 0.96231001615524292
vt 0.86521995067596436 0.97360348701477051
vt 0.7409394383430481 0.98201531171798706
vt 0.61735349893569946 0.98754596710205078
vt 0.49446102976799011 0.99019604921340942
vt 0.37226089835166931 0.98996615409851074
vt 0.25075206160545349 0.98685669898986816
vt 0.12993344664573669 0.98086833953857422
vn 0 0 1
vn 0 0 1
vn 0 0 1
vn 0 0 1
vn 0 0 1
vn 0 0 1
vn 0 0 1
vn 0 0 1
vn 0 0 1
vn 0 0 1
vn 0 0 1
vn 0 0 1
vn 0 0 1
vn 0 0 1
vn 0 0 1
vn 0 0 1
vn 0 0 1
vn 0 0 1
f 39/39/39 38/38/38 37/37/37 54/54/54 53/53/53 52/52/52 51/51/51 50/50/50 49/49/49 48/48/48 47/47/47 46/46/46 45/45/45 44/44/44 43/43/43 42/42/42 41/41/41 40/40/40
