# Rhino

mtllib obj1_inner.mtl
usemtl diffuse_Black
v -7.5105834007263184 -7.5983619689941406 0
v -6.4640669822692871 -0.044692829251289368 0
v -5.4175429344177246 7.50897216796875 0
v -4.0518431663513184 7.3553504943847656 0
v -2.6720137596130371 7.2404823303222656 0
v -1.2780777215957642 7.1643524169921875 0
v 0.12994234263896942 7.1269454956054687 0
v 1.5520385503768921 7.1282386779785156 0
v 2.9881806373596191 7.1682205200195313 0
v 4.4383606910705566 7.2468757629394531 0
v 5.9025483131408691 7.3641777038574219 0
v 0.75314944982528687 -0.3328283429145813 0
v 1.3362182378768921 3.8757097721099854 0
v -2.8782820701599121 0.17028824985027313 0
v -2.2952132225036621 4.3788261413574219 0
v 4.3845810890197754 -0.83594495058059692 0
v 4.9676499366760254 3.3725931644439697 0
v 6.4636521339416504 -0.041007831692695618 0
v 7.0247559547424316 -7.4461956024169922 0
v 6.0970215797424316 -7.5405101776123047 0
v 5.1718583106994629 -7.6235122680664062 0
v 4.2492737770080566 -7.6952037811279297 0
v 3.3292679786682129 -7.755584716796875 0
v 2.4118332862854004 -7.804656982421875 0
v 1.4969772100448608 -7.8424224853515625 0
v 0.58468478918075562 -7.8688793182373047 0
v -0.32503658533096313 -7.8840312957763672 0
v -1.2321869134902954 -7.88787841796875 0
v -2.1367812156677246 -7.8804206848144531 0
v -3.0388121604919434 -7.8616619110107422 0
v -3.9382796287536621 -7.8316001892089844 0
v -4.8351836204528809 -7.7902393341064453 0
v -5.7295393943786621 -7.7375774383544922 0
v -6.6213393211364746 -7.6736183166503906 0
v 0.17007295787334442 -4.5413665771484375 0
v 3.8015122413635254 -5.0444831848144531 0
v 3.5099778175354004 -7.1487522125244141 0
v 1.9857925176620483 -4.7929229736328125 0
v -0.12146145850419998 -6.6456336975097656 0
v 1.6942580938339233 -6.8971939086914062 0
v -3.4613585472106934 -4.0382499694824219 0
v -1.6456390619277954 -4.2898063659667969 0
v -3.7528929710388184 -6.1425209045410156 0
v -1.9371734857559204 -6.3940773010253906 0
v -5.2770705223083496 -3.7866933345794678 0
v -5.5686125755310059 -5.890960693359375 0
vt 0.0098039219155907631 0.0098039219155907631
vt 0.45851480960845947 0.0098039219155907631
vt 0.90722566843032837 0.0098039219155907631
vt 0.90929991006851196 0.10349028557538986
vt 0.91374701261520386 0.19776815176010132
vt 0.92056584358215332 0.29263642430305481
vt 0.92975527048110962 0.3880939781665802
vt 0.94131416082382202 0.48413974046707153
vt 0.95524132251739502 0.5807725191116333
vt 0.97153568267822266 0.67799133062362671
vt 0.99019604921340942 0.77579498291015625
vt 0.5 0.5
vt 0.75 0.5
vt 0.5 0.25
vt 0.75 0.25
vt 0.5 0.75
vt 0.75 0.75
vt 0.56312084197998047 0.88299554586410522
vt 0.13604556024074554 0.99019604921340942
vt 0.12305699288845062 0.92841273546218872
vt 0.11074858158826828 0.86669778823852539
vt 0.099120251834392548 0.80505120754241943
vt 0.088171929121017456 0.74347275495529175
vt 0.077903538942337036 0.68196243047714233
vt 0.068314984440803528 0.62051993608474731
vt 0.059406206011772156 0.55914533138275146
vt 0.051177117973566055 0.4978383481502533
vt 0.043627642095088959 0.43659895658493042
vt 0.036757703870534897 0.37542694807052612
vt 0.030567219480872154 0.31432226300239563
vt 0.025056116282939911 0.253284752368927
vt 0.020224312320351601 0.19231429696083069
vt 0.016071729362010956 0.13141074776649475
vt 0.012598292902112007 0.070574000477790833
vt 0.25 0.5
vt 0.25 0.75
vt 0.125 0.75
vt 0.25 0.625
vt 0.125 0.5
vt 0.125 0.625
vt 0.25 0.25
vt 0.25 0.375
vt 0.125 0.25
vt 0.125 0.375
vt 0.25 0.125
vt 0.125 0.125
vn 0 0 -1
vn 0 0 -1
vn 0 0 -1
vn 0 0 -1
vn 0 0 -1
vn 0 0 -1
vn 0 0 -1
vn 0 0 -1
vn 0 0 -1
vn 0 0 -1
vn 0 0 -1
vn 0 0 -1
vn 0 0 -1
vn 0 0 -1
vn 0 0 -1
vn 0 0 -1
vn 0 0 -1
vn 0 0 -1
vn 0 0 -1
vn 0 0 -1
vn 0 0 -1
vn 0 0 -1
vn 0 0 -1
vn 0 0 -1
vn 0 0 -1
vn 0 0 -1
vn 0 0 -1
vn 0 0 -1
vn 0 0 -1
vn 0 0 -1
vn 0 0 -1
vn 0 0 -1
vn 0 0 -1
vn 0 0 -1
vn 0 0 -1
vn 0 0 -1
vn 0 0 -1
vn 0 0 -1
vn 0 0 -1
vn 0 0 -1
vn 0 0 -1
vn 0 0 -1
vn 0 0 -1
vn 0 0 -1
vn 0 0 -1
vn 0 0 -1
f 11/11/11 18/18/18 19/19/19 20/20/20 21/21/21 22/22/22 23/23/23 24/24/24 25/25/25 26/26/26 27/27/27 28/28/28 29/29/29 30/30/30 31/31/31 32/32/32 33/33/33 34/34/34 1/1/1 2/2/2 3/3/3 4/4/4 5/5/5 6/6/6 7/7/7 8/8/8 9/9/9 10/10/10
