# Rhino

mtllib obj3.mtl
g obj3_outter
usemtl diffuse_Black
v -6.0700640678405762 7.6671891212463379 0
v -7.5057635307312012 -7.6671919822692871 0
v -5.6293139457702637 -7.8477301597595215 0
v -3.7528798580169678 -7.9766898155212402 0
v -1.8764455318450928 -8.0540637969970703 0
v 4.0975455704028718E-06 -8.0798549652099609 0
v 1.8764383792877197 -8.0540637969970703 0
v 3.7528727054595947 -7.9766898155212402 0
v 5.6293225288391113 -7.8477301597595215 0
v 7.5057568550109863 -7.6671919822692871 0
v 6.0700726509094238 7.6671891212463379 0
v 4.5525555610656738 7.5080018043518066 0
v 3.0350382328033447 7.3942933082580566 0
v 1.5175211429595947 7.3260674476623535 0
v 4.0975455704028718E-06 7.3033280372619629 0
v -1.5175130367279053 7.3260674476623535 0
v -3.0350301265716553 7.3942933082580566 0
v -4.5525469779968262 7.5080018043518066 0
v -5.7099261283874512 7.222780704498291 0
v -4.2824511528015137 7.0830140113830566 0
v -2.8549611568450928 6.9831833839416504 0
v -1.4274861812591553 6.923281192779541 0
v 4.0975455704028718E-06 6.9033150672912598 0
v 1.4274790287017822 6.923281192779541 0
v 2.8549692630767822 6.9831833839416504 0
v 4.2824444770812988 7.0830140113830566 0
v 5.7099347114562988 7.222780704498291 0
v 7.0706982612609863 -7.311490535736084 0
v 5.3030285835266113 -7.4726462364196777 0
v 3.5353586673736572 -7.5877585411071777 0
v 1.7676737308502197 -7.6568236351013184 0
v 4.0975455704028718E-06 -7.6798453330993652 0
v -1.7676808834075928 -7.6568236351013184 0
v -3.5353505611419678 -7.5877585411071777 0
v -5.3030352592468262 -7.4726462364196777 0
v -7.0707049369812012 -7.311490535736084 0
vt 0.10356783121824265 0.99019604921340942
vt 0.0098039219155907631 0.035495854914188385
vt 0.13235294818878174 0.024255635216832161
vt 0.25490197539329529 0.016226904466748238
vt 0.37745097279548645 0.011409667320549488
vt 0.5 0.0098039219155907631
vt 0.62254899740219116 0.011409667320549488
vt 0.7450980544090271 0.016226904466748238
vt 0.86764705181121826 0.024255635216832161
vt 0.99019604921340942 0.035495854914188385
vt 0.89643216133117676 0.99019604921340942
vt 0.79732412099838257 0.98028504848480225
vt 0.69821608066558838 0.9732058048248291
vt 0.59910804033279419 0.96895819902420044
vt 0.5 0.96754235029220581
vt 0.40089195966720581 0.96895819902420044
vt 0.30178391933441162 0.9732058048248291
vt 0.20267587900161743 0.98028504848480225
vt 0.12708841264247894 0.96252751350402832
vt 0.22031630575656891 0.95382595062255859
vt 0.31354421377182007 0.94761055707931519
vt 0.40677210688591003 0.94388127326965332
vt 0.5 0.94263821840286255
vt 0.59322792291641235 0.94388127326965332
vt 0.68645578622817993 0.94761055707931519
vt 0.77968370914459229 0.95382595062255859
vt 0.87291157245635986 0.96252751350402832
vt 0.96178311109542847 0.057641394436359406
vt 0.84633731842041016 0.047607988119125366
vt 0.73089158535003662 0.040441267192363739
vt 0.61544579267501831 0.036141235381364822
vt 0.5 0.034707892686128616
vt 0.38455420732498169 0.036141235381364822
vt 0.26910844445228577 0.040441267192363739
vt 0.15366266667842865 0.047607988119125366
vt 0.038216885179281235 0.057641394436359406
vn 0 0 1
vn 0 0 1
vn 0 0 1
vn 0 0 1
vn 0 0 1
vn 0 0 1
vn 0 0 1
vn 0 0 1
vn 0 0 1
vn 0 0 1
vn 0 0 1
vn 0 0 1
vn 0 0 1
vn 0 0 1
vn 0 0 1
vn 0 0 1
vn 0 0 1
vn 0 0 1
vn 0 0 1
vn 0 0 1
vn 0 0 1
vn 0 0 1
vn 0 0 1
vn 0 0 1
vn 0 0 1
vn 0 0 1
vn 0 0 1
vn 0 0 1
vn 0 0 1
vn 0 0 1
vn 0 0 1
vn 0 0 1
vn 0 0 1
vn 0 0 1
vn 0 0 1
vn 0 0 1
f 36/36/36 2/2/2 3/3/3
f 3/3/3 35/35/35 36/36/36
f 35/35/35 3/3/3 4/4/4
f 36/36/36 19/19/19 2/2/2
f 34/34/34 4/4/4 5/5/5
f 5/5/5 33/33/33 34/34/34
f 33/33/33 5/5/5 6/6/6
f 4/4/4 34/34/34 35/35/35
f 18/18/18 19/19/19 20/20/20
f 19/19/19 18/18/18 1/1/1
f 18/18/18 20/20/20 17/17/17
f 2/2/2 19/19/19 1/1/1
f 16/16/16 21/21/21 22/22/22
f 21/21/21 16/16/16 17/17/17
f 22/22/22 15/15/15 16/16/16
f 15/15/15 22/22/22 23/23/23
f 20/20/20 21/21/21 17/17/17
f 15/15/15 23/23/23 24/24/24
f 31/31/31 6/6/6 7/7/7
f 6/6/6 31/31/31 32/32/32
f 31/31/31 7/7/7 30/30/30
f 33/33/33 6/6/6 32/32/32
f 29/29/29 8/8/8 9/9/9
f 30/30/30 8/8/8 29/29/29
f 9/9/9 28/28/28 29/29/29
f 10/10/10 28/28/28 9/9/9
f 7/7/7 8/8/8 30/30/30
f 14/14/14 24/24/24 25/25/25
f 25/25/25 13/13/13 14/14/14
f 13/13/13 25/25/25 26/26/26
f 15/15/15 24/24/24 14/14/14
f 11/11/11 12/12/12 27/27/27
f 26/26/26 27/27/27 12/12/12
f 10/10/10 27/27/27 28/28/28
f 27/27/27 10/10/10 11/11/11
f 13/13/13 26/26/26 12/12/12
g obj3_inner
usemtl diffuse_Black
v -5.7099261283874512 7.222780704498291 0
v -7.0707049369812012 -7.311490535736084 0
v -5.3030352592468262 -7.4726462364196777 0
v -3.5353505611419678 -7.5877585411071777 0
v -1.7676808834075928 -7.6568236351013184 0
v 4.0975455704028718E-06 -7.6798453330993652 0
v 1.7676737308502197 -7.6568236351013184 0
v 3.5353586673736572 -7.5877585411071777 0
v 5.3030285835266113 -7.4726462364196777 0
v 7.0706982612609863 -7.311490535736084 0
v 5.7099347114562988 7.222780704498291 0
v 4.2824444770812988 7.0830140113830566 0
v 2.8549692630767822 6.9831833839416504 0
v 1.4274790287017822 6.923281192779541 0
v 4.0975455704028718E-06 6.9033150672912598 0
v -1.4274861812591553 6.923281192779541 0
v -2.8549611568450928 6.9831833839416504 0
v -4.2824511528015137 7.0830140113830566 0
vt 0.10414360463619232 0.99019604921340942
vt 0.0098039219155907631 0.034036889672279358
vt 0.13235294818878174 0.023434966802597046
vt 0.25490197539329529 0.015862163156270981
vt 0.37745097279548645 0.011318482458591461
vt 0.5 0.0098039219155907631
vt 0.62254899740219116 0.011318482458591461
vt 0.7450980544090271 0.015862163156270981
vt 0.86764705181121826 0.023434966802597046
vt 0.99019604921340942 0.034036889672279358
vt 0.89585638046264648 0.99019604921340942
vt 0.79689228534698486 0.98100143671035767
vt 0.69792819023132324 0.97443383932113647
vt 0.59896409511566162 0.97049325704574585
vt 0.5 0.96917974948883057
vt 0.40103590488433838 0.97049325704574585
vt 0.30207180976867676 0.97443383932113647
vt 0.20310769975185394 0.98100143671035767
vn 0 0 1
vn 0 0 1
vn 0 0 1
vn 0 0 1
vn 0 0 1
vn 0 0 1
vn 0 0 1
vn 0 0 1
vn 0 0 1
vn 0 0 1
vn 0 0 1
vn 0 0 1
vn 0 0 1
vn 0 0 1
vn 0 0 1
vn 0 0 1
vn 0 0 1
vn 0 0 1
f 38/38/38 39/39/39 40/40/40 41/41/41 42/42/42 43/43/43 44/44/44 45/45/45 46/46/46 47/47/47 48/48/48 49/49/49 50/50/50 51/51/51 52/52/52 53/53/53 54/54/54 37/37/37
