# Rhino

mtllib obj5.mtl
g obj5_outter
usemtl diffuse_Black
v 7.9641470909118652 -7.9574241638183594 0
v 5.7592215538024902 7.9574241638183594 0
v 4.3128104209899902 7.7837448120117188 0
v 2.8500418663024902 7.6541213989257813 0
v 1.3708549737930298 7.5685501098632813 0
v -0.1246589720249176 7.5270309448242187 0
v -1.6365913152694702 7.5295677185058594 0
v -3.1648507118225098 7.5761566162109375 0
v -4.7095284461975098 7.6668014526367187 0
v -6.2705636024475098 7.8014984130859375 0
v -7.4528145790100098 -7.8014984130859375 0
v -5.4861702919006348 -7.9980850219726563 0
v -3.5307869911193848 -8.144073486328125 0
v -1.5867255926132202 -8.2394638061523437 0
v 0.3460441529750824 -8.2842540740966797 0
v 2.2675223350524902 -8.2784461975097656 0
v 4.1777091026306152 -8.2220382690429687 0
v 6.0765738487243652 -8.1150302886962891 0
v 7.5105948448181152 -7.5983619689941406 0
v 5.7295279502868652 -7.7375774383544922 0
v 3.9382681846618652 -7.8316001892089844 0
v 2.1367850303649902 -7.8804206848144531 0
v 0.3250480592250824 -7.8840312957763672 0
v -1.4969733953475952 -7.8424224853515625 0
v -3.3292794227600098 -7.755584716796875 0
v -5.1718697547912598 -7.6235122680664062 0
v -7.0247445106506348 -7.4461956024169922 0
v -5.9025521278381348 7.3641777038574219 0
v -4.4383492469787598 7.2468757629394531 0
v -2.9881844520568848 7.1682205200195313 0
v -1.5520271062850952 7.1282386779785156 0
v -0.1299385130405426 7.1269454956054687 0
v 1.2780815362930298 7.1643524169921875 0
v 2.6720023155212402 7.2404823303222656 0
v 4.0518546104431152 7.3553504943847656 0
v 5.4175467491149902 7.50897216796875 0
vt 0.99019604921340942 0.029532212764024734
vt 0.84998142719268799 0.99019604921340942
vt 0.75800150632858276 0.97971236705780029
vt 0.66498035192489624 0.97188782691955566
vt 0.57091784477233887 0.96672248840332031
vt 0.47581413388252258 0.96421635150909424
vt 0.37966912984848022 0.96436941623687744
vt 0.28248283267021179 0.96718168258666992
vt 0.18425527215003967 0.97265321016311646
vt 0.084986425936222076 0.98078387975692749
vt 0.0098039219155907631 0.038944397121667862
vt 0.13486751914024353 0.027077831327915192
vt 0.2592126727104187 0.018265563994646072
vt 0.38283935189247131 0.012507593259215355
vt 0.50574761629104614 0.0098039219155907631
vt 0.62793737649917603 0.010154547169804573
vt 0.74940872192382813 0.013559471815824509
vt 0.87016165256500244 0.020018693059682846
vt 0.96135294437408447 0.051206301897764206
vt 0.84809315204620361 0.042802825570106506
vt 0.734183669090271 0.037127356976270676
vt 0.61962342262268066 0.034180406481027603
vt 0.50441145896911621 0.033962491899728775
vt 0.38854670524597168 0.036474123597145081
vt 0.27202814817428589 0.041715815663337708
vt 0.15485475957393646 0.049688082188367844
vt 0.037025533616542816 0.060391433537006378
vt 0.10838882625102997 0.95438617467880249
vt 0.20149922370910645 0.94730532169342041
vt 0.29371845722198486 0.94255763292312622
vt 0.38504534959793091 0.94014418125152588
vt 0.47547867894172668 0.94006603956222534
vt 0.56501728296279907 0.94232416152954102
vt 0.65365993976593018 0.94691956043243408
vt 0.74140554666519165 0.9538533091545105
vt 0.82825279235839844 0.96312636137008667
vn 0 0 1
vn 0 0 1
vn 0 0 1
vn 0 0 1
vn 0 0 1
vn 0 0 1
vn 0 0 1
vn 0 0 1
vn 0 0 1
vn 0 0 1
vn 0 0 1
vn 0 0 1
vn 0 0 1
vn 0 0 1
vn 0 0 1
vn 0 0 1
vn 0 0 1
vn 0 0 1
vn 0 0 1
vn 0 0 1
vn 0 0 1
vn 0 0 1
vn 0 0 1
vn 0 0 1
vn 0 0 1
vn 0 0 1
vn 0 0 1
vn 0 0 1
vn 0 0 1
vn 0 0 1
vn 0 0 1
vn 0 0 1
vn 0 0 1
vn 0 0 1
vn 0 0 1
vn 0 0 1
f 27/27/27 11/11/11 12/12/12
f 12/12/12 26/26/26 27/27/27
f 26/26/26 12/12/12 13/13/13
f 27/27/27 28/28/28 11/11/11
f 25/25/25 13/13/13 14/14/14
f 14/14/14 24/24/24 25/25/25
f 24/24/24 14/14/14 15/15/15
f 13/13/13 25/25/25 26/26/26
f 9/9/9 28/28/28 29/29/29
f 28/28/28 9/9/9 10/10/10
f 9/9/9 29/29/29 8/8/8
f 11/11/11 28/28/28 10/10/10
f 7/7/7 30/30/30 31/31/31
f 30/30/30 7/7/7 8/8/8
f 31/31/31 6/6/6 7/7/7
f 6/6/6 31/31/31 32/32/32
f 29/29/29 30/30/30 8/8/8
f 6/6/6 32/32/32 33/33/33
f 22/22/22 15/15/15 16/16/16
f 15/15/15 22/22/22 23/23/23
f 22/22/22 16/16/16 21/21/21
f 24/24/24 15/15/15 23/23/23
f 20/20/20 17/17/17 18/18/18
f 21/21/21 17/17/17 20/20/20
f 18/18/18 19/19/19 20/20/20
f 1/1/1 19/19/19 18/18/18
f 16/16/16 17/17/17 21/21/21
f 5/5/5 33/33/33 34/34/34
f 34/34/34 4/4/4 5/5/5
f 4/4/4 34/34/34 35/35/35
f 6/6/6 33/33/33 5/5/5
f 2/2/2 3/3/3 36/36/36
f 35/35/35 36/36/36 3/3/3
f 19/19/19 2/2/2 36/36/36
f 2/2/2 19/19/19 1/1/1
f 4/4/4 35/35/35 3/3/3
g obj5_inner
usemtl diffuse_Black
v 7.5105948448181152 -7.5983619689941406 0
v 5.4175467491149902 7.50897216796875 0
v 4.0518546104431152 7.3553504943847656 0
v 2.6720023155212402 7.2404823303222656 0
v 1.2780815362930298 7.1643524169921875 0
v -0.1299385130405426 7.1269454956054687 0
v -1.5520271062850952 7.1282386779785156 0
v -2.9881844520568848 7.1682205200195313 0
v -4.4383492469787598 7.2468757629394531 0
v -5.9025521278381348 7.3641777038574219 0
v -7.0247445106506348 -7.4461956024169922 0
v -5.1718697547912598 -7.6235122680664062 0
v -3.3292794227600098 -7.755584716796875 0
v -1.4969733953475952 -7.8424224853515625 0
v 0.3250480592250824 -7.8840312957763672 0
v 2.1367850303649902 -7.8804206848144531 0
v 3.9382681846618652 -7.8316001892089844 0
v 5.7295279502868652 -7.7375774383544922 0
vt 0.99019604921340942 0.027998447418212891
vt 0.84902274608612061 0.99019604921340942
vt 0.75690782070159912 0.98041170835494995
vt 0.66384005546569824 0.97309571504592896
vt 0.5698208212852478 0.9682469367980957
vt 0.47485128045082092 0.96586436033248901
vt 0.37893274426460266 0.96594685316085815
vt 0.2820664644241333 0.96849334239959717
vt 0.18425369262695313 0.9735027551651001
vt 0.085495725274085999 0.98097401857376099
vt 0.0098039219155907631 0.037689987570047379
vt 0.13478003442287445 0.026396520435810089
vt 0.25906053185462952 0.017984716221690178
vt 0.38264647126197815 0.01245402917265892
vt 0.50553900003433228 0.0098039219155907631
vt 0.6277390718460083 0.010033850558102131
vt 0.74924790859222412 0.013143275864422321
vt 0.87006658315658569 0.019131654873490334
vn 0 0 1
vn 0 0 1
vn 0 0 1
vn 0 0 1
vn 0 0 1
vn 0 0 1
vn 0 0 1
vn 0 0 1
vn 0 0 1
vn 0 0 1
vn 0 0 1
vn 0 0 1
vn 0 0 1
vn 0 0 1
vn 0 0 1
vn 0 0 1
vn 0 0 1
vn 0 0 1
f 47/47/47 48/48/48 49/49/49 50/50/50 51/51/51 52/52/52 53/53/53 54/54/54 37/37/37 38/38/38 39/39/39 40/40/40 41/41/41 42/42/42 43/43/43 44/44/44 45/45/45 46/46/46
